<svg width="500" height="500" viewBox="0 0 342.3 204.601" fill="none" xmlns="http://www.w3.org/2000/svg">
<rect width="500" height="500" rx="250" fill="url(#paint0_linear_116_713)"/>
<path d="M 251.4 204.601 L 251.4 130.201 L 186 0.001 L 213.9 0.001 L 264 99.301 L 314.4 0.001 L 342.3 0.001 L 276.9 130.201 L 276.9 204.601 L 251.4 204.601 Z M 0 204.601 L 0 0.001 L 65.7 0.001 A 169.735 169.735 0 0 1 90.121 1.682 A 131.695 131.695 0 0 1 109.65 6.001 Q 129.3 12.001 143.4 24.601 A 81.129 81.129 0 0 1 162.534 50.42 A 97.124 97.124 0 0 1 165.15 56.401 Q 172.322 74.401 172.77 98.465 A 173.74 173.74 0 0 1 172.8 101.701 A 139.767 139.767 0 0 1 171.192 123.452 Q 169.286 135.542 165.122 145.737 A 85.503 85.503 0 0 1 164.4 147.451 A 95.206 95.206 0 0 1 151.556 169.06 A 83.766 83.766 0 0 1 141.6 179.551 A 91.688 91.688 0 0 1 110.118 197.656 A 105.432 105.432 0 0 1 107.7 198.451 A 134.486 134.486 0 0 1 75.4 204.307 A 157.783 157.783 0 0 1 65.7 204.601 L 0 204.601 Z M 25.2 23.101 L 25.2 181.501 L 65.7 181.501 A 115.375 115.375 0 0 0 88.883 179.236 A 102.399 102.399 0 0 0 96.75 177.301 Q 111.3 173.101 122.25 163.651 A 60.518 60.518 0 0 0 135.35 147.47 A 76.414 76.414 0 0 0 139.5 138.901 Q 144.963 125.634 145.689 107.404 A 143.375 143.375 0 0 0 145.8 101.701 A 122.665 122.665 0 0 0 144.748 85.194 Q 143.613 76.847 141.254 69.69 A 71.507 71.507 0 0 0 140.1 66.451 A 69.785 69.785 0 0 0 132.232 51.429 A 58.454 58.454 0 0 0 124.05 42.001 A 63.029 63.029 0 0 0 104.479 29.756 A 75.843 75.843 0 0 0 98.85 27.751 A 100.243 100.243 0 0 0 79.999 23.868 A 128.727 128.727 0 0 0 65.7 23.101 L 25.2 23.101 Z" fill="#428DFF"/>
<defs>
<linearGradient id="paint0_linear_116_713" x1="250" y1="0" x2="250" y2="500" gradientUnits="userSpaceOnUse">
<stop stop-color="#E5EFFF"/>
<stop offset="1" stop-color="#C2DAFF"/>
</linearGradient>
</defs>
</svg>
