  <svg width="30%" height="30%" viewBox="0 0 20 20" fill="none" xmlns="http://www.w3.org/2000/svg">
     <style>
      path{
        fill: white;
      }
      rect{
        fill: #0252CD;  
      }
      @media (prefers-color-scheme: dark) {
        rect { fill: #428DFF; }
      }
    </style>
    <path d="M16.5256 11.21C16.5667 11.0193 16.551 10.8207 16.4807 10.6388C16.4103 10.4568 16.2883 10.2994 16.1296 10.186L2.12959 0.185967C1.97205 0.0726847 1.78493 0.00773394 1.59108 -0.000951572C1.39723 -0.00963709 1.20505 0.0383185 1.03801 0.137058C0.870975 0.235797 0.736306 0.381045 0.650457 0.555062C0.564608 0.729078 0.531295 0.92433 0.554588 1.11697L2.55459 18.117C2.57761 18.3119 2.65747 18.4957 2.78421 18.6455C2.91096 18.7953 3.07899 18.9046 3.26737 18.9596C3.45575 19.0146 3.65616 19.013 3.84362 18.9549C4.03108 18.8968 4.1973 18.7848 4.32159 18.633L7.93359 14.217L11.3106 19.677L13.0116 18.625L9.65459 13.197L15.7436 11.979C15.9349 11.9415 16.1111 11.8487 16.2501 11.7119C16.3891 11.5752 16.4849 11.4007 16.5256 11.21Z" fill="white"/>
  </svg>