<?xml version="1.0" encoding="utf-8"?>
<!-- Generator: Adobe Illustrator 24.2.3, SVG Export Plug-In . SVG Version: 6.00 Build 0)  -->
<svg version="1.1" id="Layer_1" xmlns="http://www.w3.org/2000/svg" xmlns:xlink="http://www.w3.org/1999/xlink" x="0px" y="0px"
	 viewBox="0 0 500 500" style="enable-background:new 0 0 500 500;" xml:space="preserve">
<style type="text/css">
	.st0{fill:#FFFFFF;}
	.st1{fill:url(#SVGID_1_);}
	.st2{fill:url(#SVGID_2_);}
	.st3{fill:url(#SVGID_3_);}
	.st4{fill:url(#SVGID_4_);}
	.st5{fill:url(#SVGID_5_);}
	.st6{fill:url(#SVGID_6_);}
	.st7{fill:url(#SVGID_7_);}
	.st8{fill:url(#SVGID_8_);}
	.st9{fill:url(#SVGID_9_);}
	.st10{fill:url(#SVGID_10_);}
	.st11{fill:url(#SVGID_11_);}
	.st12{fill:url(#SVGID_12_);}
	.st13{fill:url(#SVGID_13_);}
	.st14{fill:url(#SVGID_14_);}
	.st15{fill:url(#SVGID_15_);}
	.st16{fill:url(#SVGID_16_);}
	.st17{fill:url(#SVGID_17_);}
	.st18{fill:url(#SVGID_18_);}
	.st19{fill:url(#SVGID_19_);}
	.st20{fill:url(#SVGID_20_);}
	.st21{fill:url(#SVGID_21_);}
	.st22{fill:url(#SVGID_22_);}
	.st23{fill:url(#SVGID_23_);}
</style>
<g>
	<g>
		<linearGradient id="SVGID_1_" gradientUnits="userSpaceOnUse" x1="75.9348" y1="430.469" x2="422.9062" y2="70.7327">
			<stop  offset="0" style="stop-color:#FB04FF"/>
			<stop  offset="1" style="stop-color:#7900FF"/>
		</linearGradient>
		<path class="st1" d="M371.3,449.1H128.7c-42.8,0-77.8-35-77.8-77.8V128.7c0-42.8,35-77.8,77.8-77.8h242.7
			c42.8,0,77.8,35,77.8,77.8v242.7C449.1,414.1,414.1,449.1,371.3,449.1z"/>
	</g>
	<g>
		<path class="st0" d="M308.2,184.5c3.4,5.3,6.1,11.1,8.4,17c1.2,3,2.2,6,3.1,9c1,3.1,1.8,6.2,2.5,9.3c2.9,12.5,4.1,25.7,2.9,39.2
			c-1.2,13.4-4.8,27.1-11.6,39.7c-6.6,12.6-16.4,23.8-27.7,32.3c-11.3,8.6-24.1,14.7-37,18.8c-6.5,2-13,3.5-19.5,4.7
			c-3.3,0.5-6.5,1.1-9.8,1.4c-1.6,0.2-3.4,0.4-4.7,0.5l-4.2,0.3c-5.5,0.5-11.1,1.1-16.6,2c-5.5,0.9-11,2-16.5,3.3
			c-5.5,1.4-11,3.1-16.6,5.2c-5.6,2.1-11.1,4.6-16.9,7.6c2.4-6.1,6-11.6,10.3-16.7c4.3-5.1,9.3-9.6,14.7-13.5
			c5.4-3.9,11.3-7.3,17.4-10.1c6.1-2.8,12.4-5,18.8-6.8c6.8-1.8,11.8-2.7,17.3-4.2c5.4-1.5,10.6-3.1,15.7-4.9
			c10.1-3.7,19.6-8.4,27.8-14.2c8.3-5.9,15.4-12.9,21.1-21.3c2.9-4.2,5.5-8.7,7.7-13.4c2.3-4.8,4.2-9.8,5.8-15.1
			c3.2-10.5,5.2-21.9,6.4-33.6c0.3-2.9,0.5-5.9,0.7-8.9c0.2-3,0.3-6,0.4-9C308.4,196.9,308.4,190.8,308.2,184.5z"/>
		<path class="st0" d="M191.8,315.5c-3.4-5.3-6.1-11.1-8.4-17c-1.2-3-2.2-6-3.1-9c-1-3.1-1.8-6.2-2.5-9.3
			c-2.9-12.5-4.1-25.7-2.9-39.2c1.2-13.4,4.8-27.1,11.6-39.7c6.6-12.6,16.4-23.8,27.7-32.3c11.3-8.6,24.1-14.7,37-18.8
			c6.5-2,13-3.5,19.5-4.7c3.3-0.5,6.5-1.1,9.8-1.4c1.6-0.2,3.4-0.4,4.7-0.5l4.2-0.3c5.5-0.5,11.1-1.1,16.6-2c5.5-0.9,11-2,16.5-3.3
			c5.5-1.4,11-3.1,16.6-5.2c5.6-2.1,11.1-4.6,16.9-7.6c-2.4,6.1-6,11.6-10.3,16.7c-4.3,5.1-9.3,9.6-14.7,13.5
			c-5.4,3.9-11.3,7.3-17.4,10.1c-6.1,2.8-12.4,5-18.8,6.8c-6.8,1.8-11.8,2.7-17.3,4.2c-5.4,1.5-10.6,3.1-15.7,4.9
			c-10.1,3.7-19.6,8.4-27.8,14.2c-8.3,5.9-15.4,12.9-21.1,21.3c-2.9,4.2-5.5,8.7-7.7,13.4c-2.3,4.8-4.2,9.8-5.8,15.1
			c-3.2,10.5-5.2,21.8-6.4,33.6c-0.3,2.9-0.5,5.9-0.7,8.9c-0.2,3-0.3,6-0.4,9C191.6,303.1,191.6,309.2,191.8,315.5z"/>
	</g>
</g>
</svg>
