<?xml version="1.0" standalone="no"?>
<!DOCTYPE svg PUBLIC "-//W3C//DTD SVG 20010904//EN"
 "http://www.w3.org/TR/2001/REC-SVG-20010904/DTD/svg10.dtd">
<svg version="1.0" xmlns="http://www.w3.org/2000/svg"
 width="556.000000pt" height="608.000000pt" viewBox="0 0 556.000000 608.000000"
 preserveAspectRatio="xMidYMid meet">

<g transform="translate(0.000000,608.000000) scale(0.100000,-0.100000)"
fill="#000000" stroke="none">
<path d="M420 3694 c0 -1224 4 -1964 9 -1962 6 2 316 136 690 298 l681 295 0
444 c0 273 4 441 9 435 5 -5 122 -225 260 -489 l250 -480 478 -3 479 -2 239
472 240 473 3 -425 3 -425 681 -295 c375 -162 685 -296 690 -298 4 -2 8 881 8
1962 l0 1966 -799 0 -798 0 -379 -665 c-208 -366 -380 -665 -383 -665 -3 0
-177 299 -386 665 l-379 665 -798 0 -798 0 0 -1966z m1941 1147 c224 -392 411
-717 416 -722 4 -4 193 317 418 714 l411 722 712 3 712 2 0 -1834 0 -1834
-197 86 c-109 47 -371 161 -583 253 l-385 167 -5 606 -5 607 -324 -641 -324
-640 -410 2 -410 3 -341 654 -341 655 -5 -624 -5 -624 -570 -248 c-314 -136
-576 -247 -582 -248 -10 0 -13 372 -13 1830 l0 1830 711 -2 712 -3 408 -714z"/>
<path d="M640 3755 c0 -927 3 -1685 6 -1685 4 0 215 91 470 201 l464 201 0
820 c0 462 4 817 9 814 4 -3 201 -377 437 -830 l429 -825 163 -1 162 0 0 712
0 713 -447 782 -447 783 -623 0 -623 0 0 -1685z"/>
<path d="M3650 1500 c-67 -23 -114 -73 -135 -144 -22 -74 -22 -710 0 -784 33
-109 137 -171 268 -159 160 14 233 122 225 334 l-3 78 -76 3 -77 3 -4 -105
c-3 -94 -6 -108 -27 -130 -46 -49 -130 -28 -146 36 -3 13 -5 173 -3 356 l3
334 24 19 c34 28 92 25 121 -6 20 -21 24 -38 28 -110 l5 -85 80 0 80 0 -6 101
c-8 159 -54 232 -164 265 -63 19 -127 17 -193 -6z"/>
<path d="M1580 965 l0 -545 75 0 75 0 1 363 1 362 62 -360 61 -360 74 -3 c41
-2 77 1 81 5 5 4 32 169 61 365 l54 357 5 -362 5 -362 78 -3 77 -3 0 546 0
545 -114 0 c-82 0 -115 -4 -118 -12 -3 -7 -29 -174 -58 -370 -30 -197 -56
-355 -59 -352 -3 3 -33 168 -66 367 l-60 362 -117 3 -118 3 0 -546z"/>
<path d="M2390 965 l0 -545 230 0 230 0 0 80 0 80 -145 0 -145 0 0 160 0 160
115 0 115 0 0 75 0 75 -115 0 -115 0 0 150 0 150 145 0 145 0 0 80 0 80 -230
0 -230 0 0 -545z"/>
<path d="M2925 1499 c-3 -8 -4 -252 -3 -544 l3 -530 83 -3 82 -3 0 221 0 220
59 0 c54 0 62 -3 85 -31 25 -30 26 -35 27 -172 0 -78 4 -162 7 -187 l7 -45 89
-3 c88 -3 89 -3 81 20 -4 13 -10 106 -14 208 -7 203 -17 241 -72 281 l-28 20
37 37 c21 21 43 56 50 78 15 50 16 245 1 297 -14 50 -60 101 -112 122 -57 24
-374 35 -382 14z m306 -168 c22 -18 24 -27 27 -135 l4 -116 -30 -30 c-27 -26
-38 -30 -86 -30 l-56 0 0 165 0 165 59 0 c43 0 65 -5 82 -19z"/>
<path d="M4080 965 l0 -545 230 0 230 0 0 80 0 80 -145 0 -145 0 0 160 0 160
115 0 115 0 0 75 0 75 -115 0 -115 0 0 150 0 150 145 0 145 0 0 80 0 80 -230
0 -230 0 0 -545z"/>
<path d="M4620 965 l0 -547 173 4 c155 3 177 6 220 27 26 13 59 38 73 57 50
65 54 100 54 459 0 359 -4 394 -54 459 -14 19 -47 44 -73 57 -43 21 -65 24
-220 27 l-173 4 0 -547z m305 379 c41 -16 45 -48 45 -379 0 -392 2 -385 -121
-385 l-59 0 0 385 0 385 59 0 c33 0 67 -3 76 -6z"/>
</g>
</svg>
